<svg xmlns="http://www.w3.org/2000/svg" viewBox="0 0 116.14 28.26"><defs><style>.a{fill:#f5c82f;}.b{fill:#231f20;}.c{fill:#fff;}</style></defs><title>Asset 1</title><rect class="a" x="71.13" width="45.01" height="28.26"/><rect class="b" width="71.14" height="28.26"/><path class="b" d="M74.62,21.71l.49-1.19a2.69,2.69,0,0,0,1.54.55q1.17,0,1.17-.81a1.15,1.15,0,0,0-.2-.75,3.53,3.53,0,0,0-1.13-.78A5.44,5.44,0,0,1,75.33,18a1.89,1.89,0,0,1-.46-.66,2.17,2.17,0,0,1-.16-.85,1.85,1.85,0,0,1,.63-1.44A2.34,2.34,0,0,1,77,14.5a3,3,0,0,1,1.9.48l-.4,1.14a2.49,2.49,0,0,0-1.47-.5,1,1,0,0,0-.71.24.83.83,0,0,0-.25.63q0,.64,1.42,1.33a4.62,4.62,0,0,1,1.08.68,2.07,2.07,0,0,1,.5.72,2.33,2.33,0,0,1,.17.91,1.84,1.84,0,0,1-.72,1.49,2.93,2.93,0,0,1-1.92.59A3.42,3.42,0,0,1,74.62,21.71Z"/><path class="b" d="M85,19.79h-3.9a1.38,1.38,0,0,0,.45,1,1.63,1.63,0,0,0,1.11.36A1.8,1.8,0,0,0,84,20.7l.49,1a3.14,3.14,0,0,1-2,.55,2.65,2.65,0,0,1-2-.73,2.77,2.77,0,0,1-.73-2,2.83,2.83,0,0,1,.8-2.09,2.8,2.8,0,0,1,3.82-.09,2.42,2.42,0,0,1,.72,1.8A3.57,3.57,0,0,1,85,19.79Zm-3.85-1h2.68a1.2,1.2,0,0,0-1.19-1.21h-.13a1.31,1.31,0,0,0-1.36,1.24Z"/><path class="b" d="M89.12,21.58a1.23,1.23,0,0,1-.6.47,2.3,2.3,0,0,1-.9.18,2,2,0,0,1-1.39-.44,1.57,1.57,0,0,1-.5-1.25,1.75,1.75,0,0,1,.71-1.48,3.31,3.31,0,0,1,2-.54,2.21,2.21,0,0,1,.53.08q0-1-1.22-1a2.7,2.7,0,0,0-1.2.24l-.28-1a3.58,3.58,0,0,1,1.56-.32,2.53,2.53,0,0,1,1.83.57,3,3,0,0,1,.58,2.15v1.17q0,1.09.44,1.37a.69.69,0,0,1-.35.34,1.42,1.42,0,0,1-.44.06.71.71,0,0,1-.49-.2A1,1,0,0,1,89.12,21.58Zm-.12-2a2.69,2.69,0,0,0-.49-.07q-1.51,0-1.51,1,0,.73.85.73A1,1,0,0,0,89,20.09Z"/><path class="b" d="M91.77,14.64,93,14.33v6.18q0,1,.6,1.2a1,1,0,0,1-1,.56q-.87,0-.87-1.2Z"/><path class="b" d="M94.87,22.13V17.71h-.7v-1h2v5.46Zm.66-7.57a.74.74,0,1,1-.52.22.71.71,0,0,1,.52-.27Z"/><path class="b" d="M101.06,22.13V19a1.58,1.58,0,0,0-.27-1,1.07,1.07,0,0,0-.87-.32,1.36,1.36,0,0,0-.6.16,1.38,1.38,0,0,0-.5.39v3.94H97.55V16.67h.92l.23.51a1.9,1.9,0,0,1,1.53-.61,2,2,0,0,1,1.54.58,2.25,2.25,0,0,1,.56,1.63v3.35Z"/><path class="b" d="M103.21,23.51l.8-1a2.15,2.15,0,0,0,1.49.61,2.19,2.19,0,0,0,.91-.16q.36-.16.36-.45,0-.48-.79-.48a5.79,5.79,0,0,0-.64,0,5.89,5.89,0,0,1-.64,0q-1.32,0-1.31-.94a.82.82,0,0,1,.22-.53,1.34,1.34,0,0,1,.51-.38,1.93,1.93,0,0,1-.93-1.72,1.86,1.86,0,0,1,.64-1.45,2.29,2.29,0,0,1,1.58-.57,2.49,2.49,0,0,1,1.23.27l.5-.58.88.8-.61.44a2.21,2.21,0,0,1-.25,2.62,2,2,0,0,1-1.43.56h-.58l-.27.11c-.16.07-.24.15-.24.23s.12.2.35.2a3,3,0,0,0,.53-.08,3.23,3.23,0,0,1,.64-.08Q108,21,108,22.52a1.46,1.46,0,0,1-.74,1.3,3.28,3.28,0,0,1-1.79.47A3.76,3.76,0,0,1,103.21,23.51Zm1.27-4.94a1.11,1.11,0,0,0,.27.78.93.93,0,0,0,.72.29.87.87,0,0,0,.7-.29,1.17,1.17,0,0,0,.25-.78,1,1,0,0,0-.26-.7.88.88,0,0,0-.68-.29.94.94,0,0,0-1,1Z"/><path class="c" d="M13.62,19.7v2.75H12.3V15l1.55-.06a4.79,4.79,0,0,1,2.59.54,1.89,1.89,0,0,1,.82,1.69q0,2.57-3,2.57Zm0-3.57v2.38h.53a2.28,2.28,0,0,0,1.32-.3,1.13,1.13,0,0,0,.42-1q0-1.16-1.87-1.16Z"/><path class="c" d="M21.4,18.18a1.34,1.34,0,0,0-.75-.22,1,1,0,0,0-.79.4,1.46,1.46,0,0,0-.34,1v3.11H18.25V17h1.27v.52a1.81,1.81,0,0,1,1.42-.6,2,2,0,0,1,1,.2Z"/><path class="c" d="M22.26,19.71a2.89,2.89,0,0,1,.72-2,2.77,2.77,0,0,1,3.83,0,3.43,3.43,0,0,1,0,4.14,2.79,2.79,0,0,1-3.85,0A3,3,0,0,1,22.26,19.71Zm1.33,0q0,1.8,1.3,1.8a1.12,1.12,0,0,0,1-.47,2.2,2.2,0,0,0,.35-1.33q0-1.78-1.29-1.78a1.12,1.12,0,0,0-1,.47,2.14,2.14,0,0,0-.33,1.31Z"/><path class="c" d="M28,23.85l.8-1a2.15,2.15,0,0,0,1.49.61,2.19,2.19,0,0,0,.91-.16q.36-.16.36-.45,0-.48-.79-.48a5.79,5.79,0,0,0-.64,0,5.89,5.89,0,0,1-.64,0q-1.32,0-1.31-.94a.82.82,0,0,1,.22-.53,1.34,1.34,0,0,1,.51-.38A1.93,1.93,0,0,1,28,18.9a1.86,1.86,0,0,1,.62-1.45,2.29,2.29,0,0,1,1.58-.57,2.49,2.49,0,0,1,1.23.27l.5-.58.88.8-.61.44A2.21,2.21,0,0,1,32,20.43a2,2,0,0,1-1.43.56h-.58l-.27.11c-.16.07-.24.15-.24.23s.12.2.35.2a3,3,0,0,0,.53-.08,3.23,3.23,0,0,1,.64-.08q1.86,0,1.86,1.49a1.46,1.46,0,0,1-.74,1.3,3.28,3.28,0,0,1-1.79.47A3.76,3.76,0,0,1,28,23.85Zm1.27-4.94a1.11,1.11,0,0,0,.27.78.93.93,0,0,0,.72.29.87.87,0,0,0,.7-.29,1.17,1.17,0,0,0,.25-.78,1,1,0,0,0-.26-.7.88.88,0,0,0-.68-.29.94.94,0,0,0-1,1Z"/><path class="c" d="M36.72,18.18A1.34,1.34,0,0,0,36,18a1,1,0,0,0-.79.4,1.46,1.46,0,0,0-.34,1v3.11H33.62V17h1.27v.52a1.81,1.81,0,0,1,1.42-.6,2,2,0,0,1,1,.2Z"/><path class="c" d="M42.81,20.11h-3.9a1.38,1.38,0,0,0,.45,1,1.63,1.63,0,0,0,1.11.36A1.8,1.8,0,0,0,41.8,21l.49,1a3.14,3.14,0,0,1-2,.55,2.65,2.65,0,0,1-2-.73,2.77,2.77,0,0,1-.73-2,2.83,2.83,0,0,1,.8-2.09,2.8,2.8,0,0,1,3.82-.09,2.42,2.42,0,0,1,.72,1.8A3.57,3.57,0,0,1,42.81,20.11Zm-3.85-1h2.66a1.2,1.2,0,0,0-1.19-1.21H40.3A1.31,1.31,0,0,0,39,19.15Z"/><path class="c" d="M43.5,22.1l.45-1a2,2,0,0,0,1.29.45q.74,0,.74-.53a.65.65,0,0,0-.22-.51,3.46,3.46,0,0,0-.87-.47q-1.41-.59-1.41-1.64A1.29,1.29,0,0,1,44,17.3a2.28,2.28,0,0,1,1.38-.4,3.47,3.47,0,0,1,1.6.38l-.37,1a1.74,1.74,0,0,0-1.16-.36q-.67,0-.67.53a.47.47,0,0,0,.22.38,4.53,4.53,0,0,0,.94.45A2.4,2.4,0,0,1,47,20a1.53,1.53,0,0,1,.32,1,1.43,1.43,0,0,1-.56,1.2,2.44,2.44,0,0,1-1.5.34,3.44,3.44,0,0,1-.87-.09A4.26,4.26,0,0,1,43.5,22.1Z"/><path class="c" d="M47.9,22.1l.45-1a2,2,0,0,0,1.27.41q.74,0,.74-.53a.65.65,0,0,0-.22-.51,3.46,3.46,0,0,0-.87-.47q-1.41-.59-1.41-1.64a1.29,1.29,0,0,1,.54-1.1,2.28,2.28,0,0,1,1.38-.4,3.47,3.47,0,0,1,1.6.38l-.37,1a1.74,1.74,0,0,0-1.16-.36q-.67,0-.67.53a.47.47,0,0,0,.22.38,4.53,4.53,0,0,0,.94.45,2.4,2.4,0,0,1,1,.69,1.53,1.53,0,0,1,.32,1,1.43,1.43,0,0,1-.56,1.2,2.44,2.44,0,0,1-1.48.38,3.44,3.44,0,0,1-.87-.09A4.26,4.26,0,0,1,47.9,22.1Z"/><path class="c" d="M53,22.45V18h-.7V17h2V22.5Zm.64-7.57a.74.74,0,1,1-.52.22A.71.71,0,0,1,53.62,14.88Z"/><path class="c" d="M57.92,22.51h-.46L55,16.95h1.4l1.3,3.33,1.4-3.33h1.35Z"/><path class="c" d="M65.94,20.11H62a1.38,1.38,0,0,0,.45,1,1.63,1.63,0,0,0,1.13.4A1.8,1.8,0,0,0,65,21.06l.49,1a3.14,3.14,0,0,1-2,.55,2.65,2.65,0,0,1-2-.73,2.77,2.77,0,0,1-.73-2,2.83,2.83,0,0,1,.8-2.09,2.8,2.8,0,0,1,3.82-.09A2.42,2.42,0,0,1,66,19.5,3.57,3.57,0,0,1,65.94,20.11Zm-3.85-1h2.68a1.2,1.2,0,0,0-1.19-1.21h-.13a1.31,1.31,0,0,0-1.36,1.24Z"/></svg>